<svg width="0" height="0" class="hidden">
  <symbol xmlns="http://www.w3.org/2000/svg" viewBox="0 0 508.044 508.044" id="quotes">
    <path d="M.108 352.536c0 66.794 54.144 120.938 120.937 120.938 66.794 0 120.938-54.144 120.938-120.938s-54.144-120.937-120.938-120.937c-13.727 0-26.867 2.393-39.168 6.61C109.093 82.118 230.814-18.543 117.979 64.303-7.138 156.17-.026 348.84.114 352.371c0 .055-.006.104-.006.165zm266.061 0c0 66.794 54.144 120.938 120.938 120.938s120.938-54.144 120.938-120.938S453.9 231.599 387.106 231.599c-13.728 0-26.867 2.393-39.168 6.61C375.154 82.118 496.875-18.543 384.04 64.303 258.923 156.17 266.034 348.84 266.175 352.371c0 .055-.006.104-.006.165z"></path>
  </symbol>
  <symbol xmlns="http://www.w3.org/2000/svg" viewBox="0 0 21.8 23.8" id="search">
    <path d="M.1 8.6a8.7 8.7 0 00.8 4.8 1 1 0 001.2.4.8.8 0 00.4-1.2 8.3 8.3 0 01-.7-3.8A7.62 7.62 0 0117 9.9a7.7 7.7 0 01-11.8 5.8.8.8 0 00-1.2.2.9.9 0 00.2 1.3 10 10 0 004.5 1.5 9.3 9.3 0 006.1-1.7l5.5 6.4a.9.9 0 00.6.3.7.7 0 00.7-.2.9.9 0 00.1-1.2l-5.6-6.4a8.9 8.9 0 002.6-5.8A9.33 9.33 0 10.1 8.6z" fill="#ecf6fc"></path>
  </symbol>
  <symbol xmlns="http://www.w3.org/2000/svg" viewBox="0 0 485.656 485.656" id="settings">
    <path d="M334.512 312h-200a8 8 0 00-5.656 2.344l-96 96 11.312 11.312L137.824 328h187.888c-1.664 9.496-6.888 24-23.2 24h-88v16h88c31.64 0 40-31.4 40-48a8 8 0 00-8-8z"></path>
    <path d="M436.168 258.344a8 8 0 00-11.312 0l-72 72 11.312 11.312 65.712-65.712c10.828 14.37 8.629 34.68-5.024 46.4L331.2 416H166.512a8 8 0 00-5.656 2.344l-56 56 11.312 11.312L169.824 432h164.688a8 8 0 005.656-2.344l96-96c29.792-29.792 13.024-62.288 0-75.312zM390.512 112H361.76a111.297 111.297 0 00-8.792-21.192l20.344-20.344a8 8 0 000-11.312L339.36 25.208a8 8 0 00-11.312 0l-20.344 20.344a110.95 110.95 0 00-21.192-8.8V8a8 8 0 00-8-8h-48a8 8 0 00-8 8v28.752a110.95 110.95 0 00-21.192 8.8l-20.344-20.344a8 8 0 00-11.312 0l-33.952 33.944a8 8 0 000 11.312l20.352 20.344a111.392 111.392 0 00-8.8 21.192h-28.752a8 8 0 00-8 8v48a8 8 0 008 8h28.752a111.297 111.297 0 008.792 21.192l-20.344 20.344a8 8 0 000 11.312l33.952 33.952a8.232 8.232 0 0011.312 0l20.344-20.352a111.392 111.392 0 0021.192 8.8V280a8 8 0 008 8h48a8 8 0 008-8v-28.752a111.454 111.454 0 0021.192-8.792l20.344 20.344a8 8 0 0011.312 0l33.944-33.952a8 8 0 000-11.312l-20.344-20.344a111.392 111.392 0 008.8-21.192h28.752a8 8 0 008-8v-48a8 8 0 00-8-8zm-7.999 48h-26.888a8 8 0 00-7.784 6.16 95.729 95.729 0 01-11.68 28.144 8.001 8.001 0 001.152 9.864l19.032 19.024-22.64 22.64-19.024-19.04a8.001 8.001 0 00-9.864-1.152 95.436 95.436 0 01-28.144 11.688 8 8 0 00-6.16 7.784V272h-32v-26.88a8 8 0 00-6.16-7.784 95.436 95.436 0 01-28.144-11.688 8.001 8.001 0 00-9.864 1.152l-19.024 19.04-22.64-22.64 19.032-19.04a8.001 8.001 0 001.152-9.864 95.74 95.74 0 01-11.68-28.144 8 8 0 00-7.784-6.16h-26.888v-32H153.4a8 8 0 007.784-6.16 95.74 95.74 0 0111.68-28.144 8.001 8.001 0 00-1.152-9.864L152.68 64.8l22.632-22.624 19.032 19.032a8.001 8.001 0 009.864 1.152 95.198 95.198 0 0128.144-11.68 8 8 0 006.16-7.784V16h32v26.896a8 8 0 006.168 7.784 95.198 95.198 0 0128.144 11.68 8.001 8.001 0 009.864-1.152l19.024-19.032L356.345 64.8l-19.032 19.032a8.001 8.001 0 00-1.152 9.864 95.74 95.74 0 0111.68 28.144 8 8 0 007.784 6.16h26.888v32z"></path>
    <path d="M254.512 96c-26.51 0-48 21.49-48 48s21.491 48 48 48c26.499-.026 47.974-21.501 48-48 0-26.51-21.49-48-48-48zm0 80c-17.673 0-32-14.327-32-32 0-17.673 14.327-32 32-32 17.673 0 32 14.327 32 32 0 17.673-14.327 32-32 32z"></path>
  </symbol>
  <symbol xmlns="http://www.w3.org/2000/svg" viewBox="0 0 512 512" id="snap">
    <path d="M460.646 10H43.938C25.224 10 10 25.521 10 44.6v420.122c0 19.078 15.224 34.6 33.89 34.6 3.139.025 315.346 2.492 438.5 2.679h.03a19.282 19.282 0 0013.827-5.813A19.917 19.917 0 00502 481.77l-7.421-437.793C494.249 25.242 479.026 10 460.646 10zM43.938 22h416.708c11.879 0 21.719 9.954 21.935 22.184l6.511 384.244-96.777-99.462a33.563 33.563 0 00-54.35-3.721l-45.03 53.805a21.4 21.4 0 01-18.452 7.764 21.636 21.636 0 01-17.013-10.959l-81.253-140.576a33.583 33.583 0 00-56.1-3.578L22 345.014V44.6C22 32.138 31.841 22 43.938 22zm443.767 465.764a7.377 7.377 0 01-5.282 2.236h-.011c-123.12-.187-435.288-2.654-438.474-2.679-12.1 0-21.938-10.138-21.938-22.6V363.346L129.321 239.4l.271-.337a21.585 21.585 0 0136.236 2.221L247.08 381.86a33.576 33.576 0 0055.057 4.892l45.03-53.805a21.57 21.57 0 0135.25 2.83l.356.591L489.388 445.94l.612 36.028a8.007 8.007 0 01-2.295 5.796z"></path>
    <path d="M284.988 218.5c29.7 0 53.864-24.671 53.864-54.995s-24.164-54.995-53.864-54.995-53.863 24.671-53.863 54.995 24.163 54.995 53.863 54.995zm0-97.99c23.084 0 41.864 19.287 41.864 42.995s-18.78 43-41.864 43-41.863-19.288-41.863-42.995 18.775-42.996 41.863-42.996z"></path>
  </symbol>
  
  
  
  
</svg>